<?xml version="1.0" standalone="no"?>
<!DOCTYPE svg PUBLIC "-//W3C//DTD SVG 20010904//EN"
 "http://www.w3.org/TR/2001/REC-SVG-20010904/DTD/svg10.dtd">
<svg version="1.0" xmlns="http://www.w3.org/2000/svg"
 width="20.000000pt" height="20.000000pt" viewBox="0 0 20.000000 20.000000"
 preserveAspectRatio="xMidYMid meet">
  <defs>
    <linearGradient id="grad1" x1="0%" y1="0%" x2="0%" y2="100%">
      <stop offset="0%" style="stop-color:rgb(255, 255, 255);stop-opacity:1" />
      <stop offset="100%" style="stop-color:rgb(255, 255, 255);stop-opacity:1" />
    </linearGradient>
  </defs>
<g transform="translate(0.000000,20.000000) scale(0.100000,-0.100000)"
fill="url(#grad1)" stroke="none">
<path d="M85 150 c3 -5 -3 -10 -14 -10 -15 0 -21 -6 -21 -21 0 -11 -4 -17 -10
-14 -6 3 -10 -1 -10 -10 0 -9 5 -13 10 -10 6 3 10 -1 10 -9 0 -9 9 -16 21 -16
11 0 17 -4 14 -10 -3 -5 1 -10 10 -10 9 0 13 4 10 10 -4 6 5 10 19 10 17 0 26
6 26 16 0 8 5 12 10 9 6 -3 10 1 10 10 0 9 -4 13 -10 10 -5 -3 -10 3 -10 14 0
16 -6 21 -26 21 -14 0 -23 4 -19 10 3 6 -1 10 -10 10 -9 0 -13 -4 -10 -10z
m55 -50 c0 -28 -2 -30 -40 -30 -22 0 -40 5 -40 10 0 6 9 10 21 10 12 0 17 4
14 11 -4 6 -13 8 -21 5 -8 -3 -14 1 -14 9 0 11 11 15 40 15 38 0 40 -2 40 -30z"/>
</g>
</svg>
