<?xml version="1.0" standalone="no"?>
<!DOCTYPE svg PUBLIC "-//W3C//DTD SVG 20010904//EN"
 "http://www.w3.org/TR/2001/REC-SVG-20010904/DTD/svg10.dtd">
<svg version="1.0" xmlns="http://www.w3.org/2000/svg"
 width="64.000000pt" height="64.000000pt" viewBox="0 0 104.000000 1280.000000"
 preserveAspectRatio="xMidYMid meet">
  <defs>
    <linearGradient id="grad1" x1="0%" y1="0%" x2="0%" y2="100%">
      <stop offset="0%" style="stop-color:rgb(211, 33, 33);stop-opacity:1" />
      <stop offset="100%" style="stop-color:rgb(211, 33, 33);stop-opacity:1" />
    </linearGradient>
  </defs>
<g transform="translate(0.000000,1280.000000) scale(0.100000,-0.100000)"
fill="url(#grad1)" stroke="none">
<path d="M3081 12459 c-159 -37 -245 -82 -367 -195 -188 -173 -314 -402 -374
-683 -25 -120 -30 -161 -30 -298 0 -146 25 -381 45 -413 8 -13 -2 -13 -77 4
-35 8 -124 16 -198 17 -135 3 -135 3 -262 -40 -170 -57 -277 -124 -378 -238
-223 -252 -337 -613 -310 -981 20 -276 117 -556 261 -757 36 -50 96 -137 134
-194 46 -68 104 -136 170 -200 55 -53 89 -89 75 -80 -130 82 -273 133 -405
143 -74 6 -114 2 -230 -19 -139 -26 -141 -27 -260 -98 -66 -39 -147 -97 -180
-129 -82 -77 -160 -217 -213 -378 -184 -568 86 -1270 608 -1580 205 -122 425
-190 611 -190 l106 0 -5 -26 c-3 -18 0 -30 12 -36 23 -13 20 -35 -14 -102 -17
-32 -30 -69 -30 -80 0 -25 44 -158 114 -346 89 -236 219 -443 711 -1130 242
-338 430 -627 530 -815 79 -149 76 -136 115 -590 11 -132 32 -363 45 -513 18
-198 25 -337 25 -513 0 -226 -2 -256 -35 -473 -47 -306 -65 -463 -65 -567 0
-79 -4 -97 -42 -190 -35 -87 -41 -115 -41 -174 0 -71 30 -165 52 -165 16 0 13
27 -6 63 -22 42 -22 176 0 232 16 40 16 40 16 9 1 -17 -6 -52 -15 -78 -15 -43
-15 -48 0 -65 9 -10 16 -30 16 -44 0 -73 71 -220 99 -203 10 6 9 12 -2 24 -40
46 -77 160 -77 237 0 36 8 43 28 23 8 -8 15 -8 25 0 11 10 13 3 9 -41 -9 -111
22 -220 71 -251 28 -18 32 3 4 32 -14 15 -30 47 -36 72 -14 59 -14 153 -1 145
6 -3 10 -27 10 -51 0 -64 24 -53 28 12 2 27 7 53 13 58 5 6 9 87 10 180 0 94
4 223 9 286 5 63 12 198 16 300 5 160 14 235 66 550 32 201 83 547 113 770 35
267 61 425 75 465 45 129 103 365 170 695 80 392 146 622 220 771 55 110 141
236 305 449 178 231 271 377 356 560 42 91 84 189 95 218 14 42 22 52 40 52
27 0 40 16 26 33 -5 7 -14 38 -20 69 -11 55 -10 59 13 84 14 15 25 38 25 50 0
24 2 24 101 24 276 0 602 132 816 331 453 421 581 1157 287 1645 -76 127 -168
213 -314 294 -111 62 -119 65 -250 87 -180 29 -267 24 -410 -27 -94 -34 -269
-130 -322 -178 -17 -14 -18 -13 -18 15 0 28 5 32 63 53 104 38 284 151 400
252 415 361 586 1009 414 1578 -56 187 -141 339 -266 471 -120 128 -202 179
-380 236 l-136 45 -160 -5 c-182 -4 -276 -25 -381 -83 l-61 -33 17 77 c10 42
20 139 23 215 21 485 -181 949 -520 1199 -115 85 -218 125 -373 144 -157 18
-186 17 -329 -17z m528 -2590 c-17 -69 -21 -116 -23 -264 0 -99 2 -196 7 -216
l7 -35 -80 -37 c-44 -19 -80 -32 -80 -28 0 5 11 58 25 119 14 61 25 136 25
166 0 47 3 56 22 62 20 6 20 8 5 19 -23 17 -58 102 -62 152 -2 24 -6 51 -9 61
-5 14 12 26 87 64 62 31 93 42 95 33 2 -7 -7 -50 -19 -96z m-366 41 c77 -28
82 -32 84 -60 3 -54 6 -65 16 -71 10 -7 -43 -108 -68 -129 -28 -23 -5 -28 95
-23 82 5 100 3 100 -8 -1 -37 -23 -165 -46 -265 l-25 -110 -51 -40 c-51 -40
-192 -204 -221 -259 -20 -38 -21 -22 -3 36 8 24 22 98 30 164 14 106 14 151 1
390 -8 164 -20 293 -29 330 -8 33 -15 66 -16 74 0 16 19 12 133 -29z m-1091
-1716 l57 -17 -28 -36 c-15 -20 -32 -44 -38 -54 -9 -17 -14 -13 -47 32 -21 28
-72 82 -114 121 l-76 69 94 -48 c52 -27 121 -57 152 -67z m369 -35 c-17 -35
-35 -83 -41 -107 l-11 -42 -30 22 c-30 23 -30 23 -10 37 24 16 26 36 6 71 -13
25 -13 26 48 57 34 17 63 30 65 28 2 -1 -11 -31 -27 -66z m-293 -35 c-12 -22
-29 -44 -37 -50 -25 -20 -1 -34 57 -34 l56 0 -39 -40 c-21 -22 -42 -40 -46
-40 -3 0 -19 18 -34 40 -33 48 -30 69 21 128 43 51 53 49 22 -4z m61 -159
c-12 -19 -25 -38 -30 -41 -5 -3 -9 -10 -9 -16 0 -11 114 -5 168 9 23 5 24 4
18 -18 -10 -36 -33 -347 -29 -399 2 -33 -8 -9 -36 85 -21 72 -60 174 -85 228
-25 54 -46 103 -46 108 0 13 52 79 62 79 4 0 -2 -16 -13 -35z m184 -832 c54
-172 133 -313 254 -453 l102 -117 40 -254 c52 -323 82 -546 126 -934 19 -170
57 -485 84 -700 28 -214 48 -391 47 -393 -2 -1 -13 38 -24 87 -31 130 -114
320 -259 589 -71 130 -157 302 -192 381 -116 264 -204 646 -272 1180 l-32 254
27 84 c38 117 59 315 46 431 -5 48 -9 103 -9 122 1 19 7 -10 14 -65 7 -55 29
-150 48 -212z m1817 -190 c0 -44 83 -252 141 -353 79 -139 155 -234 259 -321
47 -39 87 -73 89 -75 2 -2 -2 -10 -9 -19 -7 -8 -10 -24 -7 -35 4 -14 -3 -25
-23 -36 -15 -10 -34 -31 -41 -48 -8 -17 -26 -37 -41 -44 -16 -7 -28 -18 -28
-23 0 -9 93 -56 142 -73 20 -6 22 3 -41 -153 -89 -221 -215 -429 -426 -703
-162 -211 -216 -293 -283 -426 -89 -177 -148 -380 -227 -769 -62 -309 -133
-610 -142 -601 -6 5 63 534 93 711 13 83 56 314 94 515 142 748 160 888 167
1275 4 246 2 320 -16 492 l-21 201 31 85 c25 68 45 101 99 166 39 45 91 124
121 181 51 97 68 111 69 53z m-1951 -302 c1 -48 -5 -35 -12 24 -4 32 -3 43 3
30 5 -11 9 -35 9 -54z m-15 -123 c43 -319 134 -719 233 -1023 49 -152 162
-421 278 -665 153 -322 215 -489 270 -725 36 -157 85 -470 85 -542 0 -10 -27
33 -61 95 -87 164 -302 491 -560 852 -532 744 -584 833 -724 1241 l-43 126 56
18 c120 37 223 95 169 95 -7 0 -18 13 -24 30 -6 16 -27 39 -47 51 -30 18 -36
26 -35 53 1 17 -1 38 -5 47 -5 12 16 36 80 93 102 89 209 220 260 317 20 38
40 69 43 69 4 0 15 -60 25 -132z m23 45 c-3 -10 -5 -4 -5 12 0 17 2 24 5 18 2
-7 2 -21 0 -30z m1626 -22 c-4 -16 -8 -19 -14 -10 -4 7 -3 19 3 26 14 18 19
12 11 -16z m-1048 -49 c89 -72 214 -139 325 -174 77 -25 97 -35 91 -46 -5 -8
0 -28 10 -49 18 -35 18 -35 -7 -73 -14 -20 -36 -42 -49 -48 -29 -13 -33 -43
-8 -63 26 -22 217 -19 239 3 16 15 14 19 -20 59 -46 54 -37 65 12 16 35 -35
37 -41 35 -95 -3 -129 -85 -509 -217 -1011 -96 -363 -143 -644 -147 -875 -1
-53 -2 -57 -10 -31 -9 31 -103 777 -164 1310 -41 348 -79 624 -128 923 -18
111 -31 202 -28 202 4 0 33 -22 66 -48z m991 -109 c-44 -133 -112 -430 -137
-598 -13 -88 -25 -150 -27 -137 -10 71 124 800 160 865 11 21 12 21 21 -15 7
-30 4 -53 -17 -115z m-87 -83 c-51 -223 -99 -560 -144 -1015 -60 -611 -126
-1088 -185 -1340 -12 -49 -48 -288 -81 -530 -33 -242 -61 -447 -62 -455 -2 -8
-13 46 -26 120 -13 74 -34 169 -48 210 -31 98 -72 487 -73 695 0 186 31 501
65 660 14 66 60 253 102 415 142 553 204 843 207 969 l1 64 -59 53 c-33 30
-56 57 -53 61 4 3 2 12 -4 19 -7 8 -7 14 1 19 7 4 7 12 0 25 -8 16 0 21 78 45
80 24 234 102 291 147 13 10 25 17 27 15 2 -1 -15 -81 -37 -177z m137 -67 c20
-198 20 -620 -1 -813 -21 -195 -68 -481 -151 -915 -86 -453 -115 -633 -169
-1055 -44 -342 -47 -361 -95 -505 -64 -195 -119 -411 -140 -555 l-16 -115 -8
117 c-20 284 100 1390 194 1794 46 195 96 536 150 1009 22 198 56 458 75 577
39 246 127 619 143 604 2 -2 10 -66 18 -143z m-2156 -310 c-11 -17 -11 -17 -6
0 3 10 6 24 7 30 0 9 2 9 5 0 3 -7 0 -20 -6 -30z m1937 -325 c-3 -8 -6 -5 -6
6 -1 11 2 17 5 13 3 -3 4 -12 1 -19z m-874 -753 c125 -234 179 -371 231 -580
37 -152 66 -305 51 -270 -2 6 -20 80 -39 165 -44 194 -117 389 -240 644 -86
178 -104 219 -92 205 2 -2 42 -76 89 -164z m426 -1745 c24 -137 36 -251 21
-206 -17 54 -58 337 -47 326 3 -3 14 -57 26 -120z m85 -222 c-4 -57 -10 -107
-15 -113 -5 -5 -9 1 -9 15 0 34 22 200 26 200 2 0 1 -46 -2 -102z m151 -278
c-48 -370 -114 -780 -126 -795 -5 -5 -9 60 -9 146 0 266 54 599 147 897 14 45
27 81 28 80 2 -2 -16 -149 -40 -328z m-237 40 c-1 -28 -2 -25 -8 15 -5 28 -8
68 -8 90 1 35 2 33 8 -15 5 -30 8 -71 8 -90z m49 -297 c-1 -43 -3 -10 -3 72 0
83 2 118 3 78 2 -40 2 -107 0 -150z m-70 -990 c-3 -10 -5 -2 -5 17 0 19 2 27
5 18 2 -10 2 -26 0 -35z m-10 -60 c-3 -10 -5 -4 -5 12 0 17 2 24 5 18 2 -7 2
-21 0 -30z m-10 -70 c-3 -10 -5 -4 -5 12 0 17 2 24 5 18 2 -7 2 -21 0 -30z
m49 -240 c-9 -82 -19 -175 -23 -208 l-6 -60 -15 46 c-14 43 -13 56 7 160 52
276 62 292 37 62z m24 -285 c-1 -75 -2 -81 -15 -64 -8 11 -13 27 -11 35 2 9 7
37 11 64 3 26 8 47 11 47 2 0 4 -37 4 -82z m-78 -30 c-9 -9 -12 -4 -11 23 0
32 1 33 11 11 8 -17 8 -26 0 -34z"/>
</g>
</svg>
