<?xml version="1.0" encoding="UTF-8"?>
<svg  width="20.000000pt" height="20.000000pt" version="1.1" viewBox="0 0 1200 1200" xmlns="http://www.w3.org/2000/svg">
   <defs>
    <linearGradient id="fitImg" x1="0%" y1="0%" x2="0%" y2="100%">
      <stop offset="0%" style="stop-color:rgb(255, 255, 255);stop-opacity:1" />
      <stop offset="100%" style="stop-color:rgb(255, 255, 255);stop-opacity:1" />
    </linearGradient>
  </defs>
  <g  
fill="url(#fitImg)" stroke="none">
 <path d="m863.16 1170.5v-19.215c0.72656-7.7773 4.3789-14.988 10.219-20.176 5.8438-5.1875 13.434-7.9609 21.242-7.7656l177.04-0.46875-321.05-319.08v-0.003906c-9.1875-9.5117-12.68-23.168-9.1836-35.922 3.5-12.758 13.465-22.723 26.219-26.219 12.758-3.5 26.414-0.007812 35.926 9.1797l322.12 320.25-1.0312-181.51 0.003906-0.003907c-0.27734-7.2891 2.418-14.383 7.4648-19.652s12.016-8.2656 19.312-8.3086h19.234c6.9961-0.5625 13.922 1.7188 19.211 6.3281 5.2891 4.6133 8.4883 11.164 8.8828 18.168l0.76953 270.41c0 0.24219-1.0312 0.44922-1.0312 0.73047l1.4805 13.707-0.003906 0.003906c0.61328 7.0469-1.7578 14.031-6.5352 19.25-5.0508 5.1094-11.996 7.8867-19.176 7.6602l-13.707-0.32031-0.003906 0.003906c-0.25781-0.027343-0.51562-0.074219-0.76562-0.13281l-268.61 1.1797c-7.3711-0.23047-14.375-3.2656-19.582-8.4883-5.207-5.2188-8.2227-12.23-8.4336-19.602zm-822.95 26.836c-0.30078 0-0.50391 0.13281-0.76953 0.13281l-13.707 0.32031-0.003906-0.003906c-7.1836 0.22266-14.137-2.5547-19.195-7.6602-4.7773-5.2188-7.1484-12.203-6.5352-19.25l1.4805-13.707c0-0.26172-1.0117-0.46875-1.0117-0.73047l0.76953-270.41-0.003906-0.003906c0.38672-7.0078 3.5898-13.562 8.8789-18.176 5.2891-4.6094 12.219-6.8906 19.215-6.3203h20.395c7.2969 0.042969 14.266 3.0391 19.312 8.3086s7.7422 12.363 7.4688 19.652l-1.0117 180.52 322.12-319.21v0.003906c9.4609-9.4648 23.25-13.164 36.18-9.7031 12.926 3.4609 23.023 13.555 26.488 26.48s-0.22656 26.719-9.6875 36.184l-321.05 319.08 177.04 0.46875c7.8086-0.19922 15.398 2.5781 21.238 7.7656 5.8359 5.1875 9.4844 12.398 10.203 20.176v19.215c-0.21094 7.3828-3.2383 14.406-8.4609 19.629-5.2227 5.2227-12.246 8.25-19.629 8.4648zm710.38-748.08h-0.003906c-7.0273-7.0234-10.977-16.551-10.977-26.488s3.9492-19.465 10.977-26.492l321.05-319.08-177.04-0.46875c-7.8086 0.19531-15.398-2.582-21.238-7.7656-5.8398-5.1875-9.4961-12.398-10.223-20.176v-19.215c0.21094-7.3828 3.2383-14.406 8.4609-19.629 5.2227-5.2227 12.246-8.25 19.629-8.4609l268.61 1.1797c0.25391-0.0625 0.50781-0.10547 0.76953-0.13281l13.707-0.32031v0.003906c7.1797-0.22656 14.129 2.5469 19.176 7.6562 4.7773 5.2227 7.1484 12.203 6.5391 19.254l-1.4805 13.707c0 0.26172 1.0312 0.46875 1.0312 0.73047l-0.76953 270.39v0.003906c-0.38672 7.0078-3.5859 13.562-8.875 18.18-5.2891 4.6172-12.219 6.8984-19.219 6.332h-19.234 0.003906c-7.2969-0.039062-14.266-3.0352-19.312-8.3086-5.0469-5.2695-7.7422-12.359-7.4688-19.652l1.0312-181.51-322.12 320.25h-0.003906c-7.0234 7.0195-16.547 10.965-26.48 10.965-9.9297 0-19.457-3.9453-26.48-10.965zm-353 0-322.12-319.21 1.0117 180.52-0.003906 0.003906c0.27344 7.2891-2.4219 14.383-7.4688 19.652s-12.016 8.2656-19.312 8.3086h-20.395c-6.9961 0.57031-13.93-1.7109-19.219-6.3281-5.293-4.6172-8.4922-11.176-8.8711-18.188l-0.76953-270.39c0-0.24219 1.0117-0.44922 1.0117-0.73047l-1.4805-13.707v-0.003906c-0.60937-7.0469 1.7617-14.031 6.5352-19.25 5.0586-5.1055 12.012-7.8828 19.199-7.6602l13.707 0.32031c0.24219 0 0.44922 0.09375 0.76953 0.13281l269.77-1.1797v-0.003907c7.3828 0.21094 14.402 3.2383 19.629 8.4609 5.2227 5.2227 8.25 12.246 8.4609 19.629v19.215c-0.71875 7.7773-4.3672 14.992-10.207 20.18-5.8359 5.1875-13.43 7.9648-21.238 7.7617l-177.04 0.46875 321.05 319.08 0.003906 0.003906c9.4609 9.4648 13.16 23.258 9.6953 36.184-3.4648 12.93-13.562 23.027-26.492 26.492-12.926 3.4648-26.723-0.23047-36.184-9.6953z"/>
</g>
</svg>
