<svg   width="20.000000pt" height="20.000000pt" viewBox="0 0 20.000000 20.000000"  xmlns="http://www.w3.org/2000/svg">
  <defs>
    <linearGradient id="fitImg" x1="0%" y1="0%" x2="0%" y2="100%">
      <stop offset="0%" style="stop-color:rgb(255, 255, 255);stop-opacity:1" />
      <stop offset="100%" style="stop-color:rgb(255, 255, 255);stop-opacity:1" />
    </linearGradient>
  </defs>
  <g  
fill="url(#fitImg)" stroke="none">
  <path d="m15.97 14.731c-1.479 1.238-3.384 1.985-5.461 1.985-4.697 0-8.509-3.812-8.509-8.508s3.812-8.508 8.509-8.508c4.695 0 8.508 3.812 8.508 8.508 0 2.078-.747 3.984-1.985 5.461l4.749 4.75c.146.146.219.338.219.531 0 .587-.537.75-.75.75-.192 0-.384-.073-.531-.22zm-5.461-13.53c-3.868 0-7.007 3.14-7.007 7.007s3.139 7.007 7.007 7.007c3.866 0 7.007-3.14 7.007-7.007s-3.141-7.007-7.007-7.007zm3.256 6.26h-6.5c-.414 0-.75.336-.75.75s.336.75.75.75h6.5c.414 0 .75-.336.75-.75s-.336-.75-.75-.75z"  />
  </g>
  </svg>