<svg version="1.1" id="Layer_1" xmlns="http://www.w3.org/2000/svg" xmlns:xlink="http://www.w3.org/1999/xlink"   width="84.000000pt" height="84.000000pt" viewBox="0 0 220.000000 380.000000"  xml:space="preserve">
<path fill="#E30713" d="M110.64 0C171.672 0 221 58.943 221 131.68c0 67.164-45.122 147.569-102.964 152.27l16.988 25.713c6.689 11.566 2.927 14.77-8.499 14.77H89.2c-8.223-.12-7.627-8.312-4.06-14.073l16.802-25.45C43.801 281.926 0 198.983 0 131.68 0 58.943 49.467 0 110.36 0h.28z"/><path fill="#E30713" fill-rule="nonzero" d="M130.545 43.849a6.306 6.306 0 015.972-11.105c10.563 5.685 21.147 14.145 30.358 23.682 9.505 9.844 17.623 20.931 22.811 31.384a6.303 6.303 0 01-2.863 8.439 6.303 6.303 0 01-8.439-2.863c-4.613-9.296-11.942-19.269-20.59-28.225-8.337-8.633-17.842-16.249-27.249-21.312z"/><path  fill="#E30713" fill-rule="nonzero" d="M85.424 294.146c2.539-.847 4.931-2.006 7.49-3.414-5.355-2.365-10.559-4.547-16.856-6.002-2.175-.502-4.315-.831-6.174-.838-1.589-.005-2.963.206-3.892.736-.708.404-1.259 1.179-1.553 2.446l-.033.133a10.03 10.03 0 00-.213 2.034c-.004 1.082.144 2.033.418 2.855.478 1.436 1.449 2.395 2.698 2.987 1.644.779 3.817 1.105 6.173 1.115 4.007.015 8.379-.863 11.942-2.052zm40.099 8.776c-3.525-1.174-6.537-2.64-9.678-4.381 13.41 35.128 8.186 63.493 2.372 95.072-5.684 30.873-11.961 64.963-.719 111.684a5.466 5.466 0 01-10.633 2.531c-11.785-48.979-5.291-84.248.59-116.187 5.855-31.803 11.075-60.167-4.38-95.412-4.756 2.786-8.716 5.031-13.707 6.693-4.651 1.553-10.458 2.7-15.928 2.678-4.096-.017-8.066-.677-11.403-2.258-3.733-1.77-6.602-4.558-7.973-8.665-.529-1.585-.813-3.394-.805-5.436.004-1.427.137-2.691.375-3.8l.043-.209c.92-3.965 3.171-6.687 6.269-8.457 2.878-1.644 6.329-2.297 9.98-2.284 2.968.01 6.032.455 8.962 1.131 8.054 1.861 14.214 4.597 20.754 7.5 2.046.907 4.138 1.837 6.308 2.742a5.67 5.67 0 011.072.548c.268-.004.535.011.798.044.31-.209.642-.383.989-.527 2.214-.932 4.349-1.881 6.438-2.807 6.541-2.903 12.7-5.637 20.757-7.5 2.93-.678 5.992-1.121 8.96-1.131 3.651-.013 7.102.64 9.98 2.284 3.098 1.77 5.351 4.492 6.269 8.456l.046.224c.236 1.109.369 2.369.373 3.786.008 2.042-.275 3.851-.805 5.436-1.371 4.107-4.239 6.895-7.972 8.665-3.337 1.581-7.306 2.241-11.402 2.258-5.471.022-11.277-1.125-15.93-2.678zm-3.544-12.19c2.558 1.41 4.95 2.567 7.489 3.414 3.564 1.189 7.934 2.067 11.94 2.052 2.356-.01 4.527-.335 6.173-1.115 1.25-.592 2.221-1.551 2.699-2.987.274-.822.422-1.773.418-2.855a10.164 10.164 0 00-.21-2.03l-.035-.135c-.293-1.269-.845-2.044-1.553-2.448-.928-.531-2.303-.741-3.892-.736-1.86.007-3.999.336-6.175.838-6.294 1.455-11.498 3.637-16.854 6.002z"/></svg>