<?xml version="1.0" encoding="utf-8"?>
<svg version="1.1" xmlns="http://www.w3.org/2000/svg" xmlns:xlink="http://www.w3.org/1999/xlink" width="32" height="32"  viewBox="0 0 256 256" enable-background="new 0 0 256 256" xml:space="preserve">
<g><g><g><path fill="#fff" d="M207.6,24.2c-7.3,2.2-8.5,3.1-33.2,27.7l-23.5,23.3l-10-10.1c-7.9-7.8-10.8-10.4-13.4-11.7c-4.7-2.3-10-3.1-14.6-2.3c-6.8,1.1-9.6,3-20.4,13.9l-9.9,9.9l55.9,55.9l55.9,55.9l9.7-9.9c8.1-8.2,10.1-10.6,11.7-13.9c1.9-3.8,1.9-4.2,1.9-10.6c0-9.8-0.6-10.8-13.6-23.9l-10.3-10.4l23.2-23.3c13.6-13.6,23.8-24.4,24.8-25.9c4.9-8.6,5.5-18.9,1.6-28c-3-6.8-10.2-13.4-17.6-16.1C221.1,23.1,212.3,22.8,207.6,24.2z M217.3,46.7c7.7,4.1,8.8,14.9,2.2,20.4c-4.7,3.8-11.2,3.8-16-0.1c-7.7-6.4-4.3-19.7,5.5-21.4C212,45.1,214.9,45.5,217.3,46.7z"/><path fill="#fff" d="M68.6,106.1c-7.3,7.3-14.8,14.5-16.9,16.1c-4.6,3.5-10.5,6.4-15.4,7.5c-7.1,1.7-17.7,0.9-21.5-1.7c-1.1-0.7-1.7-0.8-2.2-0.3c-2.5,2-3.4,8.5-1.8,12.3c0.6,1.3,15.3,16.4,42.1,43.2c44.1,44.1,45.5,45.4,53.7,48c6.1,1.9,13.2,1.8,19.7-0.5c9.1-3.1,12.1-5.4,32-25.2c10-9.9,18.1-18.2,18.1-18.6c0-0.6-93.4-93.7-94.2-94C81.9,93,75.8,98.9,68.6,106.1z"/></g></g></g>
</svg>