<?xml version="1.0" encoding="utf-8"?>
<svg width="200px" height="200px" viewBox="0 0 200 200" xmlns="http://www.w3.org/2000/svg">
  <path d="M100 20C55.8 20 20 55.8 20 100c0 44.2 35.8 80 80 80 8.8 0 16-7.2 16-16 0-4.2-1.6-7.8-4.2-10.6-2.4-2.8-4-6.4-4-10.4 0-8.8 7.2-16 16-16h18.8c26.4 0 47.4-21.2 47.4-47.4C190 48.2 149.8 20 100 20zM54 108c-8.8 0-16-7.2-16-16s7.2-16 16-16 16 7.2 16 16-7.2 16-16 16zm32-40c-8.8 0-16-7.2-16-16s7.2-16 16-16 16 7.2 16 16-7.2 16-16 16zm28 0c-8.8 0-16-7.2-16-16s7.2-16 16-16 16 7.2 16 16-7.2 16-16 16zm32 40c-8.8 0-16-7.2-16-16s7.2-16 16-16 16 7.2 16 16-7.2 16-16 16z"/>
</svg>
