<?xml version="1.0" standalone="no"?>
<!DOCTYPE svg PUBLIC "-//W3C//DTD SVG 20010904//EN"
 "http://www.w3.org/TR/2001/REC-SVG-20010904/DTD/svg10.dtd">
<svg version="1.0" xmlns="http://www.w3.org/2000/svg"
 width="200pt" height="200pt" viewBox="0 0 752.000000 752.000000"
 preserveAspectRatio="xMidYMid meet">

<g transform="translate(0.000000,752.000000) scale(0.100000,-0.100000)"
fill="#fff" stroke="#fff" stroke-width="150" >
<path d="M3740 5865 c0 -138 1 -145 20 -145 19 0 20 7 20 145 0 138 -1 145
-20 145 -19 0 -20 -7 -20 -145z"/>
<path d="M2834 5685 c-8 -19 4 -33 99 -117 64 -56 81 -67 93 -57 8 6 14 15 14
20 0 9 -181 169 -193 169 -4 0 -10 -7 -13 -15z"/>
<path d="M4572 5619 c-50 -45 -92 -85 -92 -89 0 -4 6 -13 14 -19 12 -10 29 1
93 57 43 38 84 76 92 85 13 17 9 47 -6 47 -5 0 -50 -37 -101 -81z"/>
<path d="M3663 5534 c-9 -24 9 -30 74 -24 43 4 58 9 58 20 0 23 -123 27 -132
4z"/>
<path d="M3950 5501 c0 -23 98 -64 117 -49 19 16 4 35 -40 52 -56 21 -77 20
-77 -3z"/>
<path d="M3433 5474 c-41 -24 -54 -46 -34 -58 17 -11 111 45 111 65 0 26 -27
24 -77 -7z"/>
<path d="M4194 5365 c-5 -13 62 -105 77 -105 4 0 12 6 19 14 9 12 4 23 -31 60
-44 49 -56 55 -65 31z"/>
<path d="M3221 5288 c-32 -43 -36 -68 -14 -75 16 -6 83 85 76 103 -9 25 -30
15 -62 -28z"/>
<path d="M4352 5128 c-7 -7 -5 -25 5 -57 21 -63 32 -76 49 -59 11 11 11 22 -3
65 -17 54 -33 69 -51 51z"/>
<path d="M3099 5015 c-19 -84 18 -108 41 -27 16 58 13 82 -9 82 -16 0 -22 -12
-32 -55z"/>
<path d="M4406 4841 c-4 -5 -3 -35 0 -65 6 -46 10 -56 26 -56 17 0 19 7 16 62
-2 49 -7 63 -20 66 -9 2 -19 -1 -22 -7z"/>
<path d="M3077 4783 c-11 -11 -8 -121 4 -129 23 -14 37 20 32 79 -5 53 -17 70
-36 50z"/>
<path d="M2633 4685 c-11 -30 12 -36 138 -33 116 3 124 4 124 23 0 19 -8 20
-128 23 -109 2 -128 0 -134 -13z"/>
<path d="M4623 4685 c-11 -30 12 -36 138 -33 116 3 124 4 124 23 0 19 -8 20
-128 23 -109 2 -128 0 -134 -13z"/>
<path d="M4381 4516 c-15 -60 -14 -86 4 -86 19 0 34 30 41 85 6 41 5 45 -13
45 -16 0 -23 -10 -32 -44z"/>
<path d="M3106 4491 c-9 -14 14 -98 31 -112 10 -9 17 -9 25 -1 15 15 -13 116
-34 120 -9 2 -19 -1 -22 -7z"/>
<path d="M4286 4244 c-28 -50 -30 -79 -6 -79 18 0 61 74 58 99 -5 36 -26 27
-52 -20z"/>
<path d="M3205 4220 c-9 -14 48 -104 68 -108 24 -5 21 25 -6 73 -23 40 -49 55
-62 35z"/>
<path d="M4126 3998 c-41 -47 -43 -56 -19 -65 20 -8 83 60 83 89 0 30 -26 20
-64 -24z"/>
<path d="M3364 3979 c-6 -11 72 -99 88 -99 24 0 17 34 -13 69 -34 39 -62 51
-75 30z"/>
<path d="M2930 3779 c-96 -86 -110 -103 -93 -120 13 -13 41 7 153 109 51 47
54 51 39 67 -16 16 -22 13 -99 -56z"/>
<path d="M4489 3834 c-12 -15 -7 -23 41 -66 103 -93 139 -120 150 -113 22 14
7 36 -71 107 -98 89 -103 92 -120 72z"/>
<path d="M3918 3808 c-48 -31 -60 -54 -34 -64 21 -8 108 54 104 74 -5 24 -20
22 -70 -10z"/>
<path d="M3580 3781 c0 -11 9 -23 20 -26 11 -4 28 -17 36 -31 18 -26 39 -31
47 -11 7 21 -7 47 -38 67 -39 26 -65 26 -65 1z"/>
<path d="M3869 3561 c-1 -28 -2 -57 -3 -63 -2 -24 34 -20 45 5 15 33 0 101
-24 105 -14 3 -17 -5 -18 -47z"/>
<path d="M3604 3536 c-13 -34 35 -76 87 -76 29 0 25 36 -6 44 -13 3 -29 15
-35 26 -12 23 -38 26 -46 6z"/>
<path d="M3735 3465 c-3 -8 -8 -23 -11 -32 -22 -69 -46 -228 -51 -333 -7 -151
5 -217 52 -294 19 -31 51 -82 70 -113 95 -154 98 -388 10 -664 -42 -130 -64
-234 -65 -301 0 -23 4 -28 24 -28 22 0 23 4 29 83 4 58 19 124 51 224 55 172
66 234 66 383 0 174 -23 252 -113 384 -69 101 -81 145 -80 276 1 115 20 258
49 359 13 44 13 55 2 62 -19 13 -28 11 -33 -6z"/>
</g>
</svg>
